<?xml version="1.0" standalone="no"?>
<!DOCTYPE svg PUBLIC "-//W3C//DTD SVG 20010904//EN"
 "http://www.w3.org/TR/2001/REC-SVG-20010904/DTD/svg10.dtd">
<svg version="1.0" xmlns="http://www.w3.org/2000/svg"
 width="160.000000pt" height="160.000000pt" viewBox="0 0 160.000000 160.000000"
 preserveAspectRatio="xMidYMid meet">
<metadata>
Created by potrace 1.14, written by Peter Selinger 2001-2017
</metadata>
<g transform="translate(0.000000,160.000000) scale(0.100000,-0.100000)"
fill="#000000" stroke="none">
<path d="M1345 1520 c-22 -4 -43 -6 -47 -3 -5 2 -8 0 -8 -6 0 -5 -11 -8 -25
-7 -13 2 -22 -1 -19 -5 3 -5 -4 -9 -15 -9 -11 0 -23 -5 -26 -10 -4 -6 -10 -8
-15 -5 -4 3 -36 -11 -69 -29 -34 -19 -61 -32 -61 -28 0 4 -5 -1 -11 -11 -6 -9
-14 -15 -20 -12 -5 4 -9 1 -9 -5 0 -6 -5 -8 -10 -5 -6 3 -13 -1 -16 -9 -3 -9
-12 -16 -19 -16 -6 0 -26 -14 -43 -30 -18 -17 -34 -29 -37 -28 -2 2 -21 -13
-42 -32 -20 -19 -41 -34 -46 -32 -5 1 -11 -7 -14 -18 -3 -11 -12 -20 -19 -20
-8 0 -13 -3 -12 -8 2 -4 -13 -24 -33 -44 -21 -20 -34 -39 -31 -42 3 -3 1 -6
-5 -6 -9 0 -60 -36 -103 -72 -8 -7 -18 -12 -22 -11 -5 2 -8 -2 -8 -7 0 -6 -9
-10 -21 -10 -11 0 -18 -4 -15 -9 8 -12 -54 -19 -156 -16 -49 1 -88 -2 -88 -7
0 -5 -16 -25 -36 -44 -20 -19 -34 -34 -31 -34 3 0 -10 -16 -29 -36 -19 -20
-34 -41 -34 -46 0 -5 -4 -6 -10 -3 -9 5 -11 0 -9 -20 0 -5 -19 -30 -62 -82 -5
-7 -7 -13 -4 -13 3 0 -6 -18 -21 -41 -37 -59 -39 -80 -9 -75 14 3 30 8 36 12
8 5 9 3 4 -6 -6 -9 -4 -11 6 -4 19 11 120 13 141 3 10 -6 19 -5 23 1 4 6 15 6
31 0 19 -7 23 -7 18 2 -5 8 -2 9 9 5 13 -5 22 4 38 39 12 24 24 42 27 40 3 -3
11 2 18 11 13 19 55 24 66 8 5 -6 8 -6 8 2 0 6 8 9 19 6 13 -3 17 -11 14 -24
-4 -13 -10 -16 -20 -11 -19 11 -81 -46 -77 -71 2 -10 0 -25 -3 -33 -5 -13 -7
-13 -14 -2 -6 9 -9 10 -9 1 0 -7 -14 -20 -32 -29 -17 -9 -40 -25 -51 -35 -12
-10 -24 -19 -29 -19 -4 0 -10 -11 -14 -25 -3 -14 -12 -25 -20 -25 -7 0 -17
-15 -22 -32 -9 -34 -42 -52 -42 -23 0 9 -4 13 -10 10 -5 -3 -10 -1 -10 6 0 10
-3 10 -11 2 -13 -13 -4 -33 17 -33 8 0 14 -7 14 -15 0 -8 -6 -15 -12 -15 -9 0
-8 -4 2 -10 9 -6 10 -10 3 -10 -6 0 -10 -8 -8 -19 2 -12 -8 -27 -27 -41 -28
-20 -28 -22 -11 -36 12 -9 13 -13 5 -14 -9 0 -11 -7 -7 -19 3 -11 1 -22 -5
-26 -6 -3 -8 -11 -5 -16 4 -5 3 -9 -2 -9 -4 0 -9 -18 -10 -40 -2 -30 1 -40 12
-40 8 0 15 4 15 8 0 5 24 8 52 7 32 0 58 4 66 12 8 7 19 10 25 6 6 -4 8 0 4
10 -4 11 -2 14 9 10 7 -3 14 0 14 7 0 6 4 9 9 6 4 -3 16 1 27 8 10 8 24 12 30
9 7 -2 15 0 18 6 4 6 13 8 21 4 8 -3 15 0 15 7 0 6 4 9 8 6 5 -3 21 9 38 27
16 17 22 28 14 24 -8 -4 -6 -2 4 5 31 20 85 80 88 95 0 5 9 14 20 21 10 7 16
18 13 23 -4 5 1 9 9 9 8 0 20 8 25 18 6 9 11 13 11 9 0 -4 12 4 27 20 16 15
27 29 25 31 -4 4 30 31 40 32 3 0 5 -11 3 -25 -1 -14 3 -25 9 -25 6 0 4 -5 -4
-10 -8 -5 -11 -10 -7 -10 16 0 -22 -30 -37 -30 -9 0 -16 -5 -16 -10 0 -6 -10
-15 -22 -21 -22 -10 -23 -14 -22 -152 1 -78 5 -141 10 -140 32 6 40 10 51 23
7 8 13 11 13 7 0 -4 10 1 22 12 11 11 25 18 30 15 4 -3 8 2 8 11 0 9 5 13 10
10 6 -3 10 -1 10 6 0 7 3 10 6 6 6 -5 36 17 80 59 13 12 25 20 28 17 2 -3 9 5
16 16 6 12 18 21 26 21 10 0 14 6 11 14 -4 11 -1 13 10 9 11 -4 14 -2 9 5 -4
7 -1 12 8 12 8 0 17 8 20 18 6 22 -1 98 -10 114 -4 6 -3 8 3 5 5 -4 10 7 10
26 0 18 5 43 11 57 5 14 10 29 10 33 0 5 13 20 29 34 15 14 21 22 13 18 -8 -5
-4 3 10 16 14 14 27 24 29 23 2 -2 10 4 18 12 8 8 20 11 26 7 7 -3 9 -3 5 2
-11 12 11 35 33 35 10 0 20 9 24 19 3 11 15 23 26 26 11 4 19 9 16 11 -2 3 21
29 51 59 31 30 52 55 47 55 -4 0 6 13 23 29 16 16 28 31 26 34 -3 2 2 10 11
17 8 7 15 19 15 28 0 8 3 12 7 9 4 -4 13 5 20 20 17 37 36 66 48 75 6 4 6 8 1
8 -5 0 -1 9 9 20 11 12 20 31 22 43 2 11 9 25 16 29 9 6 8 8 -3 8 -13 0 -13 1
0 10 8 5 11 10 6 10 -5 0 -3 7 4 15 7 9 10 18 7 22 -3 3 0 18 9 34 11 22 12
29 2 29 -10 0 -10 2 1 9 7 5 11 13 7 19 -3 6 -3 13 2 16 8 5 9 105 1 136 -5
20 -20 34 -44 44 -27 12 -141 15 -190 6z"/>
<path d="M115 300 c-3 -5 -1 -10 4 -10 6 0 11 5 11 10 0 6 -2 10 -4 10 -3 0
-8 -4 -11 -10z"/>
<path d="M341 96 c-8 -9 -11 -19 -7 -23 9 -9 29 13 24 27 -2 8 -8 7 -17 -4z"/>
</g>
</svg>
